<svg width="50" height="50" viewBox="0 0 50 50" fill="none" xmlns="http://www.w3.org/2000/svg">
<path d="M50 16.0714C50 18.182 49.5843 20.2718 48.7766 22.2217C47.969 24.1716 46.7852 25.9433 45.2928 27.4356C43.8004 28.928 42.0287 30.1118 40.0788 30.9195C38.129 31.7272 36.0391 32.1429 33.9286 32.1429C31.818 32.1429 29.7282 31.7272 27.7783 30.9195C25.8284 30.1118 24.0567 28.928 22.5644 27.4356C21.072 25.9433 19.8882 24.1716 19.0805 22.2217C18.2728 20.2718 17.8571 18.182 17.8571 16.0714C17.8571 11.809 19.5504 7.72119 22.5644 4.70721C25.5783 1.69324 29.6662 0 33.9286 0C38.191 0 42.2788 1.69324 45.2928 4.70721C48.3068 7.72119 50 11.809 50 16.0714ZM35.7143 8.92857C35.7143 8.45497 35.5261 8.00077 35.1913 7.66588C34.8564 7.33099 34.4022 7.14286 33.9286 7.14286C33.455 7.14286 33.0008 7.33099 32.6659 7.66588C32.331 8.00077 32.1429 8.45497 32.1429 8.92857V14.2857H26.7857C26.3121 14.2857 25.8579 14.4739 25.523 14.8087C25.1881 15.1436 25 15.5978 25 16.0714C25 16.545 25.1881 16.9992 25.523 17.3341C25.8579 17.669 26.3121 17.8571 26.7857 17.8571H32.1429V23.2143C32.1429 23.6879 32.331 24.1421 32.6659 24.477C33.0008 24.8119 33.455 25 33.9286 25C34.4022 25 34.8564 24.8119 35.1913 24.477C35.5261 24.1421 35.7143 23.6879 35.7143 23.2143V17.8571H41.0714C41.545 17.8571 41.9992 17.669 42.3341 17.3341C42.669 16.9992 42.8571 16.545 42.8571 16.0714C42.8571 15.5978 42.669 15.1436 42.3341 14.8087C41.9992 14.4739 41.545 14.2857 41.0714 14.2857H35.7143V8.92857ZM33.9286 35.7143C37.1429 35.7143 40.1786 34.9429 42.8571 33.5714V42.8571C42.8571 44.7515 42.1046 46.5684 40.765 47.9079C39.4255 49.2474 37.6087 50 35.7143 50H7.14286C5.24845 50 3.43164 49.2474 2.09209 47.9079C0.752549 46.5684 0 44.7515 0 42.8571V26.2036L20.5821 37.2857C20.8423 37.4258 21.1331 37.4991 21.4286 37.4991C21.724 37.4991 22.0149 37.4258 22.275 37.2857L27.3143 34.5714C29.3821 35.3107 31.6071 35.7143 33.9286 35.7143ZM7.14286 14.2857H14.3643C14.0339 17.8778 14.6997 21.4914 16.2887 24.7298C17.8776 27.9682 20.3283 30.7061 23.3714 32.6429L21.4286 33.6821L0 22.1464V21.4286C0 19.5342 0.752549 17.7174 2.09209 16.3778C3.43164 15.0383 5.24845 14.2857 7.14286 14.2857Z" fill="#964018"/>
</svg>
