<svg width="50" height="50" viewBox="0 0 50 50" fill="none" xmlns="http://www.w3.org/2000/svg">
<path d="M32.6825 0H17.3425C3.3325 0 0 3.3325 0 17.3175V32.6575C0 46.665 3.3075 50 17.3175 50H32.6575C46.665 50 50 46.6925 50 32.6825V17.3425C50 3.3325 46.6925 0 32.6825 0ZM40.365 35.675H36.7175C35.3375 35.675 34.9225 34.5575 32.4475 32.0825C30.2875 30 29.375 29.74 28.8275 29.74C28.0725 29.74 27.865 29.9475 27.865 30.99V34.27C27.865 35.1575 27.5775 35.6775 25.26 35.6775C23.0109 35.5264 20.8298 34.843 18.8965 33.6838C16.9632 32.5246 15.3329 30.9227 14.14 29.01C11.3079 25.485 9.33735 21.3478 8.385 16.9275C8.385 16.38 8.5925 15.885 9.635 15.885H13.28C14.2175 15.885 14.555 16.3025 14.9225 17.265C16.6925 22.475 19.7125 27.005 20.9375 27.005C21.4075 27.005 21.6125 26.7975 21.6125 25.625V20.26C21.4575 17.8125 20.1575 17.605 20.1575 16.72C20.1742 16.4866 20.2812 16.2688 20.4557 16.1129C20.6303 15.9571 20.8587 15.8753 21.0925 15.885H26.8225C27.605 15.885 27.865 16.275 27.865 17.2125V24.4525C27.865 25.235 28.2025 25.495 28.4375 25.495C28.9075 25.495 29.27 25.235 30.13 24.375C31.9772 22.1224 33.4863 19.6127 34.61 16.925C34.7249 16.6022 34.9422 16.3258 35.2288 16.138C35.5155 15.9502 35.8557 15.8614 36.1975 15.885H39.845C40.9375 15.885 41.17 16.4325 40.9375 17.2125C39.6112 20.1836 37.9702 23.0039 36.0425 25.625C35.65 26.225 35.4925 26.5375 36.0425 27.24C36.405 27.7875 37.6825 28.855 38.5425 29.87C39.7923 31.1166 40.8301 32.5589 41.615 34.14C41.9275 35.155 41.405 35.6775 40.365 35.6775V35.675Z" fill="#964018"/>
</svg>
